<?xml version="1.0" standalone="no"?><!DOCTYPE svg PUBLIC "-//W3C//DTD SVG 1.1//EN" "http://www.w3.org/Graphics/SVG/1.1/DTD/svg11.dtd"><svg t="1745825683773" class="icon" viewBox="0 0 1137 1024" version="1.1" xmlns="http://www.w3.org/2000/svg" p-id="2785" xmlns:xlink="http://www.w3.org/1999/xlink" width="222.0703125" height="200"><path d="M543.533528 0m73.516035 0l446.693877 0q73.516035 0 73.516035 73.516035l0 430.553936q0 73.516035-73.516035 73.516035l-446.693877 0q-73.516035 0-73.516035-73.516035l0-430.553936q0-73.516035 73.516035-73.516035Z" fill="#8a8a8a" p-id="2786"></path><path d="M752.886297 165.411079H105.702624C47.300292 165.411079 0 212.71137 0 271.113703v647.183673c0 58.402332 47.300292 105.702624 105.702624 105.702624H752.886297c58.402332 0 105.702624-47.300292 105.702624-105.702624V271.113703c0-58.402332-47.300292-105.702624-105.702624-105.702624zM783.673469 911.300292c0 22.204082-18.005831 40.303207-40.303207 40.303207H115.218659c-22.204082 0-40.303207-18.005831-40.303207-40.303207V278.110787c0-22.204082 18.005831-40.303207 40.303207-40.303207h628.151603c22.204082 0 40.303207 18.005831 40.303207 40.303207v633.189505z" p-id="2787" fill="#8a8a8a"></path><path d="M225.026239 370.099125m37.131195 0l223.626823 0q37.131195 0 37.131195 37.131196l0 0.093294q0 37.131195-37.131195 37.131195l-223.626823 0q-37.131195 0-37.131195-37.131195l0-0.093294q0-37.131195 37.131195-37.131196Z" p-id="2788" fill="#8a8a8a"></path><path d="M373.924198 555.381924m37.131196 0l223.626822 0q37.131195 0 37.131195 37.131196l0 0.093294q0 37.131195-37.131195 37.131195l-223.626822 0q-37.131195 0-37.131196-37.131195l0-0.093294q0-37.131195 37.131196-37.131196Z" p-id="2789" fill="#8a8a8a"></path><path d="M225.026239 743.650146m37.131195 0l223.626823 0q37.131195 0 37.131195 37.131195l0 0.093295q0 37.131195-37.131195 37.131195l-223.626823 0q-37.131195 0-37.131195-37.131195l0-0.093295q0-37.131195 37.131195-37.131195Z" p-id="2790" fill="#8a8a8a"></path></svg>