<?xml version="1.0" standalone="no"?><!DOCTYPE svg PUBLIC "-//W3C//DTD SVG 1.1//EN" "http://www.w3.org/Graphics/SVG/1.1/DTD/svg11.dtd"><svg t="1746672845390" class="icon" viewBox="0 0 1024 1024" version="1.1" xmlns="http://www.w3.org/2000/svg" p-id="2621" xmlns:xlink="http://www.w3.org/1999/xlink" width="200" height="200"><path d="M161.28 406.418286l210.541714-210.505143a36.205714 36.205714 0 0 0 0-51.712 36.205714 36.205714 0 0 0-51.712 0L109.604571 354.706286c-30.281143 30.244571-53.174857 63.634286-68.754285 100.132571-15.506286 36.534857-23.698286 76.178286-24.576 118.966857-0.841143 42.788571 5.778286 82.688 19.858285 119.808 14.08 37.083429 35.620571 71.350857 64.658286 102.765715 29.403429 31.890286 62.281143 56.32 98.669714 73.362285 36.352 17.005714 76.178286 26.624 119.478858 28.818286 43.337143 2.194286 83.931429-3.364571 121.782857-16.64 37.924571-13.275429 73.106286-34.267429 105.545143-63.012571l353.133714-312.429715c28.525714-25.234286 49.846857-53.650286 64-85.284571 14.189714-31.634286 21.211429-66.486857 21.028571-104.521143-0.182857-38.034286-7.497143-72.850286-21.942857-104.338286-14.445714-31.524571-36.022857-59.757714-64.731428-84.699428a250.404571 250.404571 0 0 0-80.822858-47.908572 250.294857 250.294857 0 0 0-92.964571-13.750857c-33.024 1.097143-63.634286 7.753143-91.794286 19.968a250.258286 250.258286 0 0 0-77.458285 53.248l-312.978286 311.588572c-33.865143 33.645714-51.090286 67.657143-51.712 101.961142-0.621714 34.267429 15.36 68.864 47.908571 103.789715 14.628571 15.616 30.939429 27.355429 48.932572 35.181714a146.870857 146.870857 0 0 0 59.099428 11.776c21.394286 0 41.106286-3.876571 59.136-11.702857a146.907429 146.907429 0 0 0 48.932572-35.108572l295.204571-315.355428a36.205714 36.205714 0 0 0-1.718857-51.675429 36.205714 36.205714 0 0 0-51.675429 1.682286l-295.168 315.355429a74.313143 74.313143 0 0 1-24.758857 17.773714 74.24 74.24 0 0 1-29.878857 5.888c-10.825143 0-20.772571-1.974857-29.878857-5.924572a74.24 74.24 0 0 1-24.722286-17.810285c-16.457143-17.627429-24.576-35.108571-24.246857-52.48 0.329143-17.334857 9.033143-34.486857 26.148572-51.565715l312.978285-311.515428c39.314286-39.131429 79.250286-59.355429 119.808-60.708572 40.594286-1.389714 81.810286 16.091429 123.611429 52.48a177.481143 177.481143 0 0 1 45.970286 60.123429c10.24 22.345143 15.433143 47.030857 15.542857 74.057143a177.517714 177.517714 0 0 1-14.884572 74.166857 177.590857 177.590857 0 0 1-45.421714 60.525714l-353.133714 312.429715a244.077714 244.077714 0 0 1-81.334857 48.566857 244.004571 244.004571 0 0 1-93.842286 12.8 244.041143 244.041143 0 0 1-92.086857-22.198857 244.004571 244.004571 0 0 1-76.032-56.502858 243.931429 243.931429 0 0 1-49.810286-79.213714 243.931429 243.931429 0 0 1-15.286857-92.342857c0.658286-32.950857 6.948571-63.488 18.944-91.648 11.995429-28.123429 29.622857-53.833143 52.955428-77.165714z" fill="#626262" p-id="2622"></path></svg>