<?xml version="1.0" standalone="no"?><!DOCTYPE svg PUBLIC "-//W3C//DTD SVG 1.1//EN" "http://www.w3.org/Graphics/SVG/1.1/DTD/svg11.dtd"><svg t="1747038857192" class="icon" viewBox="0 0 1024 1024" version="1.1" xmlns="http://www.w3.org/2000/svg" p-id="1555" xmlns:xlink="http://www.w3.org/1999/xlink" width="200" height="200"><path d="M896 224h-93.76a31.872 31.872 0 0 1-26.624-14.272l-47.296-70.976a95.744 95.744 0 0 0-79.936-42.752H375.68a95.808 95.808 0 0 0-79.872 42.752l-47.36 71.04a31.872 31.872 0 0 1-26.624 14.208H128A96.128 96.128 0 0 0 32 320v576A96.128 96.128 0 0 0 128 992h768a96.128 96.128 0 0 0 96-96V320A96.128 96.128 0 0 0 896 224z m32 672a32 32 0 0 1-32 32H128a32 32 0 0 1-32-32V320a32 32 0 0 1 32-32h93.76a95.808 95.808 0 0 0 79.872-42.752l47.36-71.04a31.872 31.872 0 0 1 26.624-14.208h272.768a31.872 31.872 0 0 1 26.624 14.272l47.36 70.976a95.808 95.808 0 0 0 79.872 42.752H896a32 32 0 0 1 32 32z" p-id="1556" fill="#707070"></path><path d="M512 352A224 224 0 1 0 736 576 224.256 224.256 0 0 0 512 352z m0 384A160 160 0 1 1 672 576 160.192 160.192 0 0 1 512 736z" p-id="1557" fill="#707070"></path></svg>