<?xml version="1.0" standalone="no"?><!DOCTYPE svg PUBLIC "-//W3C//DTD SVG 1.1//EN" "http://www.w3.org/Graphics/SVG/1.1/DTD/svg11.dtd"><svg t="1746603950966" class="icon" viewBox="0 0 1024 1024" version="1.1" xmlns="http://www.w3.org/2000/svg" p-id="1656" xmlns:xlink="http://www.w3.org/1999/xlink" width="200" height="200"><path d="M982.630656 470.3744H41.369856C18.521856 470.3744 0.000256 489.0112 0.000256 512a41.4976 41.4976 0 0 0 41.3696 41.6256h941.2608A41.4976 41.4976 0 0 0 1024.000256 512c0-22.9888-18.5216-41.6256-41.3696-41.6256zM99.865856 512l323.7248-325.7472a41.8048 41.8048 0 0 0 0-58.8672 41.1904 41.1904 0 0 0-58.496 0L12.121856 482.5728a41.8048 41.8048 0 0 0 0 58.8544l352.9728 355.1872c8.064 8.128 18.6624 12.1856 29.248 12.1856 10.5856 0 21.1712-4.0576 29.248-12.1856a41.8048 41.8048 0 0 0 0-58.88L99.865856 512z" fill="#bfbfbf" p-id="1657"></path></svg>