<?xml version="1.0" standalone="no"?><!DOCTYPE svg PUBLIC "-//W3C//DTD SVG 1.1//EN" "http://www.w3.org/Graphics/SVG/1.1/DTD/svg11.dtd"><svg t="1747556040910" class="icon" viewBox="0 0 1394 1024" version="1.1" xmlns="http://www.w3.org/2000/svg" p-id="17096" xmlns:xlink="http://www.w3.org/1999/xlink" width="272.265625" height="200"><path d="M260.460977 906.82644H24.979902a11.323956 11.323956 0 1 1 0-22.640911h235.479075a11.323956 11.323956 0 1 1 0 22.639911z" fill="#13227a" p-id="17097"></path><path d="M838.512708 1023.99598H224.314119a11.323956 11.323956 0 1 1 0-22.639911h614.197589a11.323956 11.323956 0 1 1 0 22.639911z m268.318947 0H908.145435a11.323956 11.323956 0 1 1 0-22.639911h198.68822a11.323956 11.323956 0 1 1 0 22.639911z m191.332249 0h-112.08556a11.323956 11.323956 0 1 1 0-22.639911h112.07856a11.323956 11.323956 0 1 1 0 22.639911z" fill="#13227a" p-id="17098"></path><path d="M1341.750733 906.82644H867.384595c-242.844047 0-398.508436 0-463.041182-0.562998h-4.499983l-1.131995-4.499982a498.003045 498.003045 0 0 1-8.489967-91.70164 476.068131 476.068131 0 0 1 90.540645-280.798898l23.209909-29.435884a480.800112 480.800112 0 0 1 847.962671 310.196782 455.384212 455.384212 0 0 1-9.059965 92.242638l-1.131995 4.499982z m-932.870338-11.886953c67.359736 0 221.329131 0.569998 458.5122 0.569997h465.306173a485.104096 485.104096 0 0 0 7.926969-85.492664 469.168158 469.168158 0 0 0-827.586751-302.824811l-22.639911 29.434884a466.506169 466.506169 0 0 0-88.305654 273.966925 385.632486 385.632486 0 0 0 6.794974 84.345669z" fill="#13227a" p-id="17099"></path><path d="M720.78017 901.74846h-3.959984c-44.718824 0-127.3615 0-173.23532-0.561998h-3.959984l-1.131996-3.959984a96.186622 96.186622 0 1 1 187.934262-28.872887 103.056595 103.056595 0 0 1-4.499982 29.435884z m-173.23632-11.885953c45.281822 0.569998 120.575527 0.569998 164.724354 0.569997a94.32663 94.32663 0 0 0 2.826989-22.078913 84.907667 84.907667 0 0 0-169.815334 0 89.534649 89.534649 0 0 0 2.249992 21.508916z m665.119389 11.885953h-3.959984c-44.717824 0-127.3615 0-173.23432-0.561998h-3.937985l-1.131995-3.959984a96.186622 96.186622 0 1 1 187.934262-28.872887 103.071595 103.071595 0 0 1-4.499982 29.435884z m-173.23532-11.885953c45.289822 0.569998 120.575527 0.569998 164.724354 0.569997a94.32663 94.32663 0 0 0 2.826989-22.078913 84.907667 84.907667 0 0 0-169.816334 0 54.745785 54.745785 0 0 0 2.309991 21.493916zM603.60163 633.421513a8.489967 8.489967 0 1 1 0-16.978933c117.740538 0 142.083442-44.718824 142.083443-45.288822a8.653966 8.653966 0 0 1 11.323955-3.959985 8.481967 8.481967 0 0 1 3.959985 11.323956c-1.132996 2.257991-27.162893 54.903784-157.367383 54.903784z m523.606945 0c-130.196489 0-156.797384-52.645793-157.367382-54.903784a8.481967 8.481967 0 0 1 15.28394-7.355971c0.569998 1.131996 24.905902 45.287822 142.083442 45.287822a8.706966 8.706966 0 0 1 8.488966 8.489967 8.339967 8.339967 0 0 1-8.489966 8.489966z" fill="#13227a" p-id="17100"></path><path d="M476.810128 729.945134a6.989973 6.989973 0 0 1-4.499982-2.249991 5.564978 5.564978 0 0 1 1.702993-7.925969l55.494782-37.924851a5.729978 5.729978 0 0 1 6.224976 9.621962l-55.495782 37.923852a9.966961 9.966961 0 0 1-3.426987 0.554997z m566.059778 0a6.989973 6.989973 0 0 1-4.499982-2.249991 5.564978 5.564978 0 0 1 1.695993-7.925969l55.494782-37.924851a5.729978 5.729978 0 1 1 6.224976 9.621962l-55.495783 37.923852a7.183972 7.183972 0 0 1-3.426986 0.554997z m-491.336071 0a6.989973 6.989973 0 0 1-4.499983-2.249991 5.564978 5.564978 0 0 1 1.694994-7.925969l55.495782-37.924851a5.729978 5.729978 0 1 1 6.223976 9.621962l-55.494783 37.923852a7.183972 7.183972 0 0 1-3.426986 0.554997z m566.059778 0a6.981973 6.981973 0 0 1-4.499983-2.249991 5.564978 5.564978 0 0 1 1.695994-7.925969l55.494782-37.924851a5.729978 5.729978 0 1 1 6.224975 9.621962l-55.495782 37.361854a4.154984 4.154984 0 0 1-3.426986 1.116995z m-491.343072 0a6.981973 6.981973 0 0 1-4.499982-2.249991 5.564978 5.564978 0 0 1 1.694993-7.925969l55.494783-37.924851a5.729978 5.729978 0 0 1 6.224975 9.621962l-55.495782 37.923852a7.183972 7.183972 0 0 1-3.426986 0.554997z m566.067778 0a6.989973 6.989973 0 0 1-4.499982-2.249991 5.564978 5.564978 0 0 1 1.694993-7.925969l55.494782-37.924851a5.729978 5.729978 0 1 1 6.224976 9.621962l-55.495782 37.923852a7.183972 7.183972 0 0 1-3.426987 0.554997z" fill="#13227a" p-id="17101"></path><path d="M1027.773965 519.370961a8.053968 8.053968 0 0 1-3.396986-1.132995 61.877757 61.877757 0 0 0-54.909785-8.488967 5.729978 5.729978 0 0 1-3.967984-10.753958 72.316716 72.316716 0 0 1 65.664742 9.621962 5.07698 5.07698 0 0 1 1.131995 7.925969 5.774977 5.774977 0 0 1-4.499982 2.827989z m-324.355726 0a5.15198 5.15198 0 0 1-4.499983-2.249991 5.999976 5.999976 0 0 1 1.132996-7.926969 72.369716 72.369716 0 0 1 65.664742-9.621962 5.729978 5.729978 0 1 1-3.959984 10.753958 59.927765 59.927765 0 0 0-54.909785 8.489966c-1.162995-0.008-2.294991 0.554998-3.427986 0.554998z" fill="#13227a" p-id="17102"></path><path d="M541.477874 537.773889a64.494747 64.494747 0 0 0 64.493747-64.494747c0-35.65986-64.494747-152.8364-64.494747-152.8364s-64.493747 117.16954-64.493747 152.8364a64.494747 64.494747 0 0 0 64.493747 64.494747z" fill="#13227a" p-id="17103"></path><path d="M528.885924 552.472831a80.693683 80.693683 0 0 1-80.378685-80.378684c0-42.453833 72.459716-174.345316 75.286705-179.984294a6.366975 6.366975 0 0 1 10.19096 0c2.827989 5.661978 75.286704 137.55346 75.286704 179.984294a80.693683 80.693683 0 0 1-80.385684 80.379684z m0-245.672035c-16.415936 31.129878-69.061729 131.891482-69.061729 165.286351a69.061729 69.061729 0 0 0 138.115458 0c0.008-33.386869-52.637793-134.149473-69.053729-165.279351z m391.152464 452.842222a6.816973 6.816973 0 0 1-5.661978-3.959985 94.409629 94.409629 0 0 0-4.499982-11.323955 56.13978 56.13978 0 0 0-6.223976-9.620962 39.843844 39.843844 0 0 0-66.797737 0 56.09578 56.09578 0 0 0-6.223976 9.620962 67.494735 67.494735 0 0 0-4.499982 11.323955 5.729978 5.729978 0 0 1-10.753958-3.959984c1.694993-4.498982 3.396987-9.058964 5.09198-13.017949a77.685695 77.685695 0 0 1 7.356971-11.323956 51.122799 51.122799 0 0 1 84.907667 0 77.760695 77.760695 0 0 1 7.356971 11.323956 51.932796 51.932796 0 0 1 5.09198 13.018949 5.886977 5.886977 0 0 1-3.396987 7.356971 2.076992 2.076992 0 0 1-1.701993 0.561998z m463.60318 147.175422H330.729702a11.323956 11.323956 0 1 1 0-22.639911h1052.911866a11.323956 11.323956 0 0 1 0 22.639911z" fill="#13227a" p-id="17104"></path><path d="M117.25254 70.765722a57.534774 57.534774 0 0 0-34.496865-12.456951l-25.4979-1.131995a33.04987 33.04987 0 0 1-10.753958-3.959985 6.501974 6.501974 0 0 1-3.396986-6.223975q0-6.794973 11.885953-13.589947a53.61979 53.61979 0 0 1 24.342905-6.223976 84.14967 84.14967 0 0 1 14.151944 1.694994 84.14967 84.14967 0 0 0 14.149944 1.694993 14.173944 14.173944 0 0 0 10.19296-4.499982 13.880946 13.880946 0 0 0 3.373987-9.080965c0-4.499982-5.661978-9.059964-17.547931-12.456951a90.142646 90.142646 0 0 0-23.772907-4.499982A69.743726 69.743726 0 0 0 35.179862 15.848938C21.027917 27.748891 13.663946 39.635844 13.663946 52.654793c0 10.19196 5.661978 18.109929 18.110929 23.772907a75.563703 75.563703 0 0 0 30.56788 6.223976 124.354512 124.354512 0 0 1 29.434885 3.397986 15.823938 15.823938 0 0 1 10.19096 16.415936c0 6.223976-5.661978 11.885953-16.415936 16.415935a74.993706 74.993706 0 0 1-32.831871 7.356971q-19.498923 0-25.4979-11.886953a13.685946 13.685946 0 0 0-13.019949-9.058964 12.111952 12.111952 0 0 0-10.18996 3.959984 15.088941 15.088941 0 0 0-3.959984 10.19196 27.289893 27.289893 0 0 0 11.885953 21.507916 63.436751 63.436751 0 0 0 39.626845 11.323955 117.739538 117.739538 0 0 0 50.379802-10.19196c19.243924-8.489967 28.873887-21.507916 28.873886-38.493849a37.841851 37.841851 0 0 0-13.589946-32.832871z m76.4197-27.169893A49.045807 49.045807 0 0 0 151.779404 63.969749a59.357767 59.357767 0 0 0-11.885953 39.056847 51.137799 51.137799 0 0 0 15.28394 36.791855 43.091831 43.091831 0 0 0 31.699875 12.456951 44.305826 44.305826 0 0 0 36.791856-18.110929 64.359747 64.359747 0 0 0 12.455951-39.056846 54.107788 54.107788 0 0 0-10.753958-35.096863 36.589856 36.589856 0 0 0-31.699875-16.415935z m15.27494 57.744773a25.947898 25.947898 0 0 1-7.926969 18.680927 20.045921 20.045921 0 0 1-14.719942 5.661978 17.563931 17.563931 0 0 1-12.456951-5.09198 23.075909 23.075909 0 0 1-6.794974-18.110929 40.106843 40.106843 0 0 1 5.661978-22.077914 22.107913 22.107913 0 0 1 19.243924-11.323955q18.679927 0.846997 16.977934 32.246873z m106.431582-59.439766a66.054741 66.054741 0 0 0-39.056847 13.018948 12.103952 12.103952 0 0 0-13.018949-11.323955 11.661954 11.661954 0 0 0-9.621962 3.959984 12.85395 12.85395 0 0 0-3.396987 9.058965 58.66777 58.66777 0 0 1-0.561997 9.058964c0 3.959984-0.562998 7.356971-0.562998 9.059965v64.493746a11.953953 11.953953 0 0 0 3.396987 9.059965 13.663946 13.663946 0 0 0 19.243924 0 11.249956 11.249956 0 0 0 3.959984-9.059965V89.446649a39.521845 39.521845 0 0 1 31.699876-22.639911l0.561998 10.18996c0 8.489967 3.959984 13.019949 12.455951 13.019949s13.019949-5.09198 13.589947-15.28394V67.939733C335.198684 50.389802 328.403711 41.899836 315.384762 41.899836z m97.364618 0a66.054741 66.054741 0 0 0-39.056847 13.018948 12.103952 12.103952 0 0 0-13.019949-11.323955 11.661954 11.661954 0 0 0-9.620962 3.959984 12.85395 12.85395 0 0 0-3.396987 9.058965v82.642675a11.691954 11.691954 0 0 0 2.826989 9.059965 10.979957 10.979957 0 0 0 9.621962 3.958984 11.661954 11.661954 0 0 0 9.621963-3.959984 11.249956 11.249956 0 0 0 3.959984-9.058965V89.446649a39.521845 39.521845 0 0 1 31.699876-22.639911l0.561997 10.18996c0 8.489967 3.959984 13.019949 12.455951 13.019949s13.019949-5.09198 13.589947-15.28394V67.939733c0.561998-17.548931-6.224976-26.037898-19.243924-26.037897z m129.626491 5.09198a16.055937 16.055937 0 0 0-9.621962-3.959985 12.81595 12.81595 0 0 0-11.885954 7.356971 218.98214 218.98214 0 0 0-13.589946 26.037898c-1.693993 3.396987-5.660978 12.455951-13.017949 28.302889a358.469593 358.469593 0 0 0-32.832871-56.04278 11.429955 11.429955 0 0 0-10.18396-5.09198 12.411951 12.411951 0 0 0-9.621963 3.959984 12.958949 12.958949 0 0 0-4.499982 9.620963 21.162917 21.162917 0 0 0 2.827989 8.489966c1.694993 2.249991 3.396987 5.09098 5.09198 7.355971 15.845938 27.747891 27.169893 48.678809 34.496864 62.829754-14.150944 29.997882-20.945918 48.115811-20.945917 54.339786a11.001957 11.001957 0 0 0 4.499982 9.059965 15.37394 15.37394 0 0 0 9.621962 3.396986 12.103952 12.103952 0 0 0 12.485951-9.065964c2.827989-7.926969 5.09198-14.151944 6.794974-18.110929 4.499982-11.324956 10.753958-25.4979 19.242924-43.023831 15.28394-32.247873 27.169893-55.495782 33.964867-70.194724a14.758942 14.758942 0 0 0 1.694993-6.223976 11.819954 11.819954 0 0 0-4.499982-9.059964zM651.057444 57.176776c-6.224976 0-10.754958 4.499982-13.589947 13.018948a43.653829 43.653829 0 0 1-3.396986 7.926969 16.408936 16.408936 0 0 1-11.908953-6.779973 85.357665 85.357665 0 0 0-11.323956-11.323956 27.664891 27.664891 0 0 0-17.547931-6.223975 38.24685 38.24685 0 0 0-23.772907 8.489966 48.933808 48.933808 0 0 0-14.721942 17.547932 8.413967 8.413967 0 0 0-1.131996 5.09198 9.883961 9.883961 0 0 0 3.959985 7.926968 17.105933 17.105933 0 0 0 9.058964 2.826989 13.213948 13.213948 0 0 0 11.323956-5.661977c6.223976-9.621962 11.886953-14.150944 15.845938-14.150945l2.249991 2.249991a187.327265 187.327265 0 0 0 15.28394 15.28294 36.521857 36.521857 0 0 0 22.077913 6.794974 29.014886 29.014886 0 0 0 22.077913-10.19196 29.464884 29.464884 0 0 0 8.489967-19.813923c0-9.058964-3.959984-13.017949-13.019949-13.017948z" fill="#13227a" p-id="17105"></path></svg>