<?xml version="1.0" standalone="no"?><!DOCTYPE svg PUBLIC "-//W3C//DTD SVG 1.1//EN" "http://www.w3.org/Graphics/SVG/1.1/DTD/svg11.dtd"><svg t="1745825759671" class="icon" viewBox="0 0 1559 1024" version="1.1" xmlns="http://www.w3.org/2000/svg" p-id="3163" xmlns:xlink="http://www.w3.org/1999/xlink" width="304.4921875" height="200"><path d="M1140.401263 480.159008m-419.243797 0a419.243796 419.243796 0 1 0 838.487593 0 419.243796 419.243796 0 1 0-838.487593 0Z" fill="#1296db" p-id="3164"></path><path d="M1023.599651 594.31805c-32.767873-33.03213-71.349401-59.589963-114.026914-78.352212 52.322894-42.413255 82.712454-106.099202 82.712454-173.484748 0-125.786352-105.43856-228.053827-235.453024-228.053827-13.873495 0-27.482732 1.189157-41.09197 3.435341A300.645236 300.645236 0 0 0 475.662675 0.003964a300.750939 300.750939 0 0 0-210.612862 84.562253c-112.705628 107.684744-116.669484 286.322505-8.98474 399.028133 2.906827 3.038956 5.945783 6.077912 8.98474 8.984739 13.741366 13.212852 28.275503 24.97229 43.866669 35.014058-6.21004 2.246185-12.287952 4.624498-18.233736 7.134941a475.438056 475.438056 0 0 0-151.287157 98.700005 459.067333 459.067333 0 0 0-101.871089 146.530529A444.216087 444.216087 0 0 0 4.888755 1024l87.336953-11.891567a369.167087 369.167087 0 0 1-3.831728-52.587151c0-207.045392 173.749005-375.244999 387.400823-375.244999s387.268694 168.331735 387.268695 375.244999c0 17.573093-1.189157 35.278315-3.699599 52.587151l87.336952 11.891567c12.155824-82.844583 0.792771-167.406836-32.635744-244.041378a460.613236 460.613236 0 0 0-101.87109-146.398401 475.015245 475.015245 0 0 0-169.65302-105.834945c15.591165-10.306025 30.257431-22.065463 43.866669-35.014058a282.094392 282.094392 0 0 0 73.067072-292.664674c79.937755 1.321285 144.68073 64.742975 144.68073 142.434546 0 55.626107-33.560644 104.645788-82.448197 127.900408a58.096911 58.096911 0 0 0-33.824902 52.058637v1.321285c0 25.89719 17.83735 48.887553 43.734541 55.493979 119.576311 31.578716 206.649007 137.281533 206.649006 262.803628 0 12.816467-0.9249 25.632933-2.774699 38.185142l87.336953 11.891567c2.378313-16.516065 3.699599-33.296387 3.699598-50.076709a351.06548 351.06548 0 0 0-102.928117-247.608848zM475.662675 491.65419c-115.480327 0-209.555834-91.168679-209.555834-203.081537S360.182348 85.491117 475.662675 85.491117c115.480327 0 209.687962 91.168679 209.687962 203.081536S591.407259 491.65419 475.662675 491.65419z" p-id="3165" fill="#1296db"></path></svg>