<?xml version="1.0" standalone="no"?><!DOCTYPE svg PUBLIC "-//W3C//DTD SVG 1.1//EN" "http://www.w3.org/Graphics/SVG/1.1/DTD/svg11.dtd"><svg t="1746672417877" class="icon" viewBox="0 0 1024 1024" version="1.1" xmlns="http://www.w3.org/2000/svg" p-id="1076" xmlns:xlink="http://www.w3.org/1999/xlink" width="200" height="200"><path d="M530.285714 256a164.571429 164.571429 0 1 0 0 329.142857 164.571429 164.571429 0 0 0 0-329.142857z m68.571429 233.142857c-15.213714 15.250286-38.070857 22.857143-68.571429 22.857143-30.464 0-53.321143-7.606857-68.571428-22.857143S438.857143 451.035429 438.857143 420.571429s7.606857-53.321143 22.857143-68.571429S499.821714 329.142857 530.285714 329.142857c30.500571 0 53.357714 7.606857 68.571429 22.857143S621.714286 390.107429 621.714286 420.571429s-7.643429 53.321143-22.857143 68.571428z" fill="#515151" p-id="1077"></path><path d="M530.285714 0C319.049143 0 127.158857 153.673143 147.821714 406.125714 168.484571 658.578286 311.405714 836.790857 533.577143 1024c205.933714-180.736 358.509714-398.372571 379.209143-617.874286C933.412571 186.624 741.485714 0 530.285714 0z m309.650286 399.286857c-16.347429 173.824-118.784 349.44-307.346286 526.774857-193.536-175.140571-297.472-350.464-311.844571-525.897143-5.266286-64.219429 4.644571-120.576 29.769143-169.069714a273.810286 273.810286 0 0 1 52.626285-70.326857 303.542857 303.542857 0 0 1 67.730286-50.066286C417.243429 85.650286 470.381714 73.142857 530.285714 73.142857c36.022857 0 70.070857 5.668571 102.107429 16.969143 45.129143 15.945143 86.308571 43.117714 123.574857 81.517714 38.144 39.387429 63.524571 82.212571 76.068571 128.548572 8.521143 31.414857 11.190857 64.475429 7.899429 99.108571z" fill="#515151" p-id="1078"></path></svg>