<?xml version="1.0" standalone="no"?><!DOCTYPE svg PUBLIC "-//W3C//DTD SVG 1.1//EN" "http://www.w3.org/Graphics/SVG/1.1/DTD/svg11.dtd"><svg t="1746934043020" class="icon" viewBox="0 0 1024 1024" version="1.1" xmlns="http://www.w3.org/2000/svg" p-id="1831" xmlns:xlink="http://www.w3.org/1999/xlink" width="200" height="200"><path d="M586.5984 146.2912c84.7104 0 150.6816 66.9696 150.6816 146.2784 0 79.3088-65.9712 146.2912-150.6816 146.2912H437.504c-40.2944 0-72.96 32.7424-72.96 73.1392 0 40.3968 32.6656 73.1392 72.96 73.1392h149.0944c84.7104 0 150.6816 66.9824 150.6816 146.2912 0 79.3088-65.9712 146.2784-150.6816 146.2784H437.504c-66.4832 0-121.984-41.6-142.3104-97.984a72.9088 72.9088 0 0 0-93.4016-43.9424c-37.888 13.7216-57.5232 55.6416-43.84 93.632C199.04 943.488 309.2224 1024 437.504 1024h149.0944C748.9024 1024 883.2 894.4896 883.2 731.4304c0-87.9104-39.0272-166.0672-100.4288-219.4304C844.16 458.624 883.2 380.48 883.2 292.5696 883.2 129.5104 748.9152 0 586.5984 0H437.504C309.2224 0 199.04 80.512 157.952 194.5856c-13.6832 37.9904 5.9392 79.9104 43.84 93.632a72.9088 72.9088 0 0 0 93.4016-43.9424c20.3264-56.3968 75.8272-97.984 142.3104-97.984h149.0944z" fill="#0e932e" p-id="1832"></path></svg>