<?xml version="1.0" standalone="no"?><!DOCTYPE svg PUBLIC "-//W3C//DTD SVG 1.1//EN" "http://www.w3.org/Graphics/SVG/1.1/DTD/svg11.dtd"><svg t="1746934035036" class="icon" viewBox="0 0 1024 1024" version="1.1" xmlns="http://www.w3.org/2000/svg" p-id="1339" xmlns:xlink="http://www.w3.org/1999/xlink" width="200" height="200"><path d="M591.36 146.2912c80.5888 0 145.92 65.4848 145.92 146.2784 0 43.3152-18.688 82.176-48.6528 109.056a71.8464 71.8464 0 0 0-2.048 1.9072l-510.72 494.72a73.28 73.28 0 0 0-16.9472 80.0128A72.96 72.96 0 0 0 226.56 1024h583.68c40.2944 0 72.96-32.7424 72.96-73.1392 0-40.3968-32.6656-73.152-72.96-73.152H407.0656l379.9808-368.0768A292.3264 292.3264 0 0 0 883.2 292.5696C883.2 130.9824 752.5376 0 591.36 0H445.44C318.2592 0 210.2528 81.5232 170.24 195.0592c-13.44 38.08 6.4896 79.872 44.48 93.3376a72.9088 72.9088 0 0 0 93.0944-44.5952c20.0704-56.9088 74.2144-97.5104 137.6384-97.5104h145.92z" fill="#1296db" p-id="1340"></path></svg>