<?xml version="1.0" standalone="no"?><!DOCTYPE svg PUBLIC "-//W3C//DTD SVG 1.1//EN" "http://www.w3.org/Graphics/SVG/1.1/DTD/svg11.dtd"><svg t="1746670107823" class="icon" viewBox="0 0 1024 1024" version="1.1" xmlns="http://www.w3.org/2000/svg" p-id="2802" xmlns:xlink="http://www.w3.org/1999/xlink" width="200" height="200"><path d="M36.571429 128h146.285714c20.48 0 36.571429 16.091429 36.571428 36.571429s-16.091429 36.571429-36.571428 36.571428H36.571429c-20.48 0-36.571429-16.091429-36.571429-36.571428s16.091429-36.571429 36.571429-36.571429z m932.571428 0h-658.285714c-20.48 0-36.571429 16.091429-36.571429 36.571429s16.091429 36.571429 36.571429 36.571428h658.285714c20.48 0 36.571429-16.091429 36.571429-36.571428s-16.091429-36.571429-36.571429-36.571429zM36.571429 475.428571h146.285714c20.48 0 36.571429 16.091429 36.571428 36.571429s-16.091429 36.571429-36.571428 36.571429H36.571429c-20.48 0-36.571429-16.091429-36.571429-36.571429s16.091429-36.571429 36.571429-36.571429z m274.285714 0h585.142857c20.48 0 36.571429 16.091429 36.571429 36.571429s-16.091429 36.571429-36.571429 36.571429h-585.142857c-20.48 0-36.571429-16.091429-36.571429-36.571429s16.091429-36.571429 36.571429-36.571429zM36.571429 841.142857h146.285714c20.48 0 36.571429 16.091429 36.571428 36.571429s-16.091429 36.571429-36.571428 36.571428H36.571429c-20.48 0-36.571429-16.091429-36.571429-36.571428s16.091429-36.571429 36.571429-36.571429z m274.285714 0H768c20.48 0 36.571429 16.091429 36.571429 36.571429s-16.091429 36.571429-36.571429 36.571428H310.857143c-20.48 0-36.571429-16.091429-36.571429-36.571428s16.091429-36.571429 36.571429-36.571429z" fill="#8a8a8a" p-id="2803"></path></svg>