<?xml version="1.0" standalone="no"?><!DOCTYPE svg PUBLIC "-//W3C//DTD SVG 1.1//EN" "http://www.w3.org/Graphics/SVG/1.1/DTD/svg11.dtd"><svg t="1745825631462" class="icon" viewBox="0 0 1074 1024" version="1.1" xmlns="http://www.w3.org/2000/svg" p-id="2410" xmlns:xlink="http://www.w3.org/1999/xlink" width="209.765625" height="200"><path d="M409.141861 377.060681m82.078357 0l498.719764 0q82.078357 0 82.078357 82.078357l0 480.700023q0 82.078357-82.078357 82.078357l-498.719764 0q-82.078357 0-82.078357-82.078357l0-480.700023q0-82.078357 82.078357-82.078357Z" fill="#1296db" p-id="2411"></path><path d="M715.060814 672.146957h203.112685a33.956275 33.956275 0 0 0 0-67.912549h-203.112685a33.956275 33.956275 0 0 0 0 67.912549zM918.069339 744.642562H611.108783a33.956275 33.956275 0 0 0 0 67.912549h306.960556a33.956275 33.956275 0 0 0 0-67.912549zM918.069339 883.071669H611.108783a33.956275 33.956275 0 0 0 0 67.912549h306.960556a33.956275 33.956275 0 0 0 0-67.912549zM738.080251 304.981718C738.288572 136.76275 602.046832 0.208529 433.827864 0.000208 265.504736-0.208112 129.054676 136.033628 128.846355 304.252595A304.814853 304.814853 0 0 0 283.420317 569.757332 442.160693 442.160693 0 0 0 2.499848 903.799579v0.937443c-0.520802 2.499848-1.458245 4.687216-1.874886 7.187065H1.041604c-0.520802 1.666566-0.937443 3.437292-1.041604 5.208017 2.083207 18.644703 18.853024 32.081388 37.497727 30.102342a34.050019 34.050019 0 0 0 29.89402-28.539937h0.624963c31.352266-177.593399 185.405426-307.168877 365.811154-307.689678h0.937444c168.114807-1.041604 303.731585-137.804145 303.314943-305.918953zM433.515383 542.988121c-131.450364 0.624962-238.527205-105.410276-239.152167-236.860639C193.738254 174.677118 299.773492 67.600277 431.223856 66.975314c131.450364-0.624962 238.527205 105.410276 239.152167 236.86064v1.145764c0.312481 131.137883-105.722757 237.589762-236.86064 238.006403z" p-id="2412" fill="#1296db"></path></svg>