<?xml version="1.0" standalone="no"?><!DOCTYPE svg PUBLIC "-//W3C//DTD SVG 1.1//EN" "http://www.w3.org/Graphics/SVG/1.1/DTD/svg11.dtd"><svg t="1746672474898" class="icon" viewBox="0 0 1024 1024" version="1.1" xmlns="http://www.w3.org/2000/svg" p-id="2452" xmlns:xlink="http://www.w3.org/1999/xlink" width="200" height="200"><path d="M0 0h1024v1024H0z" fill="#FFFFFF" p-id="2453"></path><path d="M783.725714 307.017143c-9.069714-18.761143-23.003429-35.108571-41.874285-49.152-32.292571-23.990857-69.449143-34.048-111.579429-30.098286a163.291429 163.291429 0 0 0-67.510857 20.736c-13.421714 7.753143-25.6 17.590857-36.571429 29.513143l-51.785143 56.173714-31.451428 34.084572c-13.860571 15.067429-11.885714 36.498286 4.571428 48.713143 16.457143 12.214857 40.265143 9.984 54.125715-5.046858l31.414857-34.084571 51.821714-56.137143c16.384-17.773714 33.536-27.501714 51.419429-29.184 17.883429-1.645714 36.534857 4.717714 55.954285 19.126857 19.382857 14.445714 29.842286 29.732571 31.341715 45.787429 1.499429 16.091429-5.924571 33.060571-22.345143 50.834286l-51.785143 56.137142-62.354286 67.657143-8.228571 8.192c-15.945143 16.018286-35.254857 21.540571-57.892572 16.566857l-14.043428-4.388571c-20.187429-6.363429-41.910857 3.072-49.334857 21.394286s2.596571 37.668571 22.784 44.032l18.505143 5.705143c28.708571 6.765714 55.113143 6.290286 79.213714-1.389715 20.882286-6.656 40.082286-18.688 57.490286-36.169143l9.179428-9.216 63.378286-68.717714 51.785143-56.137143c15.945143-17.261714 26.587429-35.949714 32-56.027428a126.902857 126.902857 0 0 0 3.584-45.165715 126.976 126.976 0 0 0-11.812572-43.739428z" fill="#626262" p-id="2454"></path><path d="M522.715429 653.860571l-31.670858 33.901715-52.150857 55.808c-16.493714 17.664-33.682286 27.282286-51.602285 28.854857-17.92 1.499429-36.534857-5.010286-55.808-19.529143-19.309714-14.555429-29.659429-29.878857-31.049143-46.043429-1.389714-16.091429 6.144-32.987429 22.674285-50.651428l52.150858-55.844572 62.829714-67.218285 8.228571-8.155429c7.606857-7.533714 15.945143-12.690286 25.014857-15.506286 10.093714-3.145143 21.101714-3.364571 32.987429-0.694857l14.006857 4.534857c20.150857 6.473143 41.874286-2.816 49.444572-21.065142 7.570286-18.285714-2.304-37.741714-22.454858-44.214858l-17.005714-5.449142c-53.467429-12.946286-100.571429-1.097143-138.386286 36.278857l-9.252571 9.179428-63.817143 68.278857-52.150857 55.808c-16.018286 17.152-26.806857 35.766857-32.365714 55.771429a126.866286 126.866286 0 0 0-3.876572 45.165714c1.353143 15.835429 5.229714 30.390857 11.593143 43.812572 8.923429 18.797714 22.747429 35.291429 41.472 49.444571 32.109714 24.210286 69.229714 34.486857 111.36 30.866286 42.130286-3.693714 76.909714-20.224 104.374857-49.554286l52.150857-55.844571 31.670858-33.865143a32 32 0 0 0-4.242286-48.749714 41.106286 41.106286 0 0 0-54.125714 4.681142z" fill="#626262" p-id="2455"></path><path d="M841.142857 73.142857H182.857143a109.714286 109.714286 0 0 0-109.714286 109.714286v694.857143a109.714286 109.714286 0 0 0 109.714286 109.714285h658.285714c60.562286 0 109.714286-49.152 109.714286-109.714285V182.857143a109.714286 109.714286 0 0 0-109.714286-109.714286z m36.571429 804.571429a36.571429 36.571429 0 0 1-36.571429 36.571428H182.857143a36.571429 36.571429 0 0 1-36.571429-36.571428V182.857143a36.571429 36.571429 0 0 1 36.571429-36.571429h658.285714a36.571429 36.571429 0 0 1 36.571429 36.571429v694.857143z" fill="#626262" p-id="2456"></path></svg>